<mxfile host="app.diagrams.net" modified="2023-05-01T11:20:06.931Z" agent="Mozilla/5.0 (Windows NT 10.0; Win64; x64) AppleWebKit/537.36 (KHTML, like Gecko) Chrome/112.0.0.0 Safari/537.36 Edg/112.0.1722.64" etag="CFI_1aOZLSYd-dxHyfmH" version="21.2.3" type="device">
  <diagram id="2suKH13zM9JkPsC_o6TE" name="1 oldal">
    <mxGraphModel dx="2447" dy="899" grid="1" gridSize="10" guides="1" tooltips="1" connect="1" arrows="1" fold="1" page="1" pageScale="1" pageWidth="827" pageHeight="1169" math="0" shadow="0">
      <root>
        <mxCell id="0" />
        <mxCell id="1" parent="0" />
        <mxCell id="bxEZ8ckqoEu1JuAKQ9-u-1" value="Felhsználók" style="rounded=0;whiteSpace=wrap;html=1;" parent="1" vertex="1">
          <mxGeometry x="420" y="150" width="80" height="40" as="geometry" />
        </mxCell>
        <mxCell id="bxEZ8ckqoEu1JuAKQ9-u-2" value="&lt;u&gt;ID&lt;/u&gt;" style="ellipse;whiteSpace=wrap;html=1;" parent="1" vertex="1">
          <mxGeometry x="540" y="150" width="80" height="40" as="geometry" />
        </mxCell>
        <mxCell id="bxEZ8ckqoEu1JuAKQ9-u-3" value="E-mail cím" style="ellipse;whiteSpace=wrap;html=1;" parent="1" vertex="1">
          <mxGeometry x="300" y="150" width="80" height="40" as="geometry" />
        </mxCell>
        <mxCell id="bxEZ8ckqoEu1JuAKQ9-u-6" value="Jelszó" style="ellipse;whiteSpace=wrap;html=1;" parent="1" vertex="1">
          <mxGeometry x="340" y="70" width="80" height="40" as="geometry" />
        </mxCell>
        <mxCell id="bxEZ8ckqoEu1JuAKQ9-u-7" value="" style="endArrow=none;html=1;rounded=0;entryX=0;entryY=0.5;entryDx=0;entryDy=0;exitX=1;exitY=0.5;exitDx=0;exitDy=0;" parent="1" source="bxEZ8ckqoEu1JuAKQ9-u-1" target="bxEZ8ckqoEu1JuAKQ9-u-2" edge="1">
          <mxGeometry width="50" height="50" relative="1" as="geometry">
            <mxPoint x="550" y="260" as="sourcePoint" />
            <mxPoint x="560" y="160" as="targetPoint" />
          </mxGeometry>
        </mxCell>
        <mxCell id="bxEZ8ckqoEu1JuAKQ9-u-9" value="" style="endArrow=none;html=1;rounded=0;entryX=1;entryY=0.5;entryDx=0;entryDy=0;exitX=0;exitY=0.5;exitDx=0;exitDy=0;" parent="1" source="bxEZ8ckqoEu1JuAKQ9-u-1" target="bxEZ8ckqoEu1JuAKQ9-u-3" edge="1">
          <mxGeometry width="50" height="50" relative="1" as="geometry">
            <mxPoint x="470" y="160" as="sourcePoint" />
            <mxPoint x="470" y="120" as="targetPoint" />
          </mxGeometry>
        </mxCell>
        <mxCell id="bxEZ8ckqoEu1JuAKQ9-u-10" value="" style="endArrow=none;html=1;rounded=0;entryX=0.5;entryY=0;entryDx=0;entryDy=0;exitX=1;exitY=1;exitDx=0;exitDy=0;" parent="1" source="bxEZ8ckqoEu1JuAKQ9-u-6" target="bxEZ8ckqoEu1JuAKQ9-u-1" edge="1">
          <mxGeometry width="50" height="50" relative="1" as="geometry">
            <mxPoint x="480" y="170" as="sourcePoint" />
            <mxPoint x="480" y="130" as="targetPoint" />
          </mxGeometry>
        </mxCell>
        <mxCell id="bxEZ8ckqoEu1JuAKQ9-u-11" value="Családfák" style="rounded=0;whiteSpace=wrap;html=1;" parent="1" vertex="1">
          <mxGeometry x="420" y="430" width="80" height="40" as="geometry" />
        </mxCell>
        <mxCell id="bxEZ8ckqoEu1JuAKQ9-u-12" value="Kezel" style="rhombus;whiteSpace=wrap;html=1;fillColor=#d5e8d4;strokeColor=#82b366;" parent="1" vertex="1">
          <mxGeometry x="430" y="280" width="60" height="60" as="geometry" />
        </mxCell>
        <mxCell id="bxEZ8ckqoEu1JuAKQ9-u-13" value="Tiltás" style="ellipse;whiteSpace=wrap;html=1;" parent="1" vertex="1">
          <mxGeometry x="500" y="70" width="80" height="40" as="geometry" />
        </mxCell>
        <mxCell id="bxEZ8ckqoEu1JuAKQ9-u-14" value="" style="endArrow=none;html=1;rounded=0;entryX=0.5;entryY=0;entryDx=0;entryDy=0;exitX=0;exitY=1;exitDx=0;exitDy=0;" parent="1" source="bxEZ8ckqoEu1JuAKQ9-u-13" target="bxEZ8ckqoEu1JuAKQ9-u-1" edge="1">
          <mxGeometry width="50" height="50" relative="1" as="geometry">
            <mxPoint x="390" y="120" as="sourcePoint" />
            <mxPoint x="470" y="160" as="targetPoint" />
          </mxGeometry>
        </mxCell>
        <mxCell id="bxEZ8ckqoEu1JuAKQ9-u-15" value="" style="endArrow=none;html=1;rounded=0;entryX=0.5;entryY=0;entryDx=0;entryDy=0;exitX=0.5;exitY=1;exitDx=0;exitDy=0;" parent="1" source="bxEZ8ckqoEu1JuAKQ9-u-1" target="bxEZ8ckqoEu1JuAKQ9-u-12" edge="1">
          <mxGeometry width="50" height="50" relative="1" as="geometry">
            <mxPoint x="400" y="130" as="sourcePoint" />
            <mxPoint x="480" y="170" as="targetPoint" />
          </mxGeometry>
        </mxCell>
        <mxCell id="bxEZ8ckqoEu1JuAKQ9-u-16" value="" style="endArrow=none;html=1;rounded=0;entryX=0.5;entryY=0;entryDx=0;entryDy=0;exitX=0.5;exitY=1;exitDx=0;exitDy=0;" parent="1" source="bxEZ8ckqoEu1JuAKQ9-u-12" target="bxEZ8ckqoEu1JuAKQ9-u-11" edge="1">
          <mxGeometry width="50" height="50" relative="1" as="geometry">
            <mxPoint x="410" y="220" as="sourcePoint" />
            <mxPoint x="490" y="260" as="targetPoint" />
          </mxGeometry>
        </mxCell>
        <mxCell id="bxEZ8ckqoEu1JuAKQ9-u-17" value="&lt;u&gt;ID&lt;/u&gt;" style="ellipse;whiteSpace=wrap;html=1;" parent="1" vertex="1">
          <mxGeometry x="560" y="390" width="80" height="40" as="geometry" />
        </mxCell>
        <mxCell id="bxEZ8ckqoEu1JuAKQ9-u-18" value="" style="endArrow=none;html=1;rounded=0;entryX=0;entryY=1;entryDx=0;entryDy=0;exitX=1;exitY=0.5;exitDx=0;exitDy=0;" parent="1" source="bxEZ8ckqoEu1JuAKQ9-u-11" target="bxEZ8ckqoEu1JuAKQ9-u-17" edge="1">
          <mxGeometry width="50" height="50" relative="1" as="geometry">
            <mxPoint x="510" y="260" as="sourcePoint" />
            <mxPoint x="550" y="260" as="targetPoint" />
          </mxGeometry>
        </mxCell>
        <mxCell id="bxEZ8ckqoEu1JuAKQ9-u-19" value="Családtagok" style="rounded=0;whiteSpace=wrap;html=1;fillColor=#fff2cc;strokeColor=#d6b656;" parent="1" vertex="1">
          <mxGeometry x="420" y="775" width="80" height="40" as="geometry" />
        </mxCell>
        <mxCell id="bxEZ8ckqoEu1JuAKQ9-u-20" value="Tartalmaz" style="rhombus;whiteSpace=wrap;html=1;fillColor=#d5e8d4;strokeColor=#82b366;" parent="1" vertex="1">
          <mxGeometry x="430" y="530" width="60" height="60" as="geometry" />
        </mxCell>
        <mxCell id="bxEZ8ckqoEu1JuAKQ9-u-21" value="" style="endArrow=none;html=1;rounded=0;entryX=0.5;entryY=0;entryDx=0;entryDy=0;exitX=0.5;exitY=1;exitDx=0;exitDy=0;" parent="1" source="bxEZ8ckqoEu1JuAKQ9-u-20" target="bxEZ8ckqoEu1JuAKQ9-u-19" edge="1">
          <mxGeometry width="50" height="50" relative="1" as="geometry">
            <mxPoint x="460" y="665" as="sourcePoint" />
            <mxPoint x="460" y="785" as="targetPoint" />
          </mxGeometry>
        </mxCell>
        <mxCell id="bxEZ8ckqoEu1JuAKQ9-u-22" value="" style="endArrow=none;html=1;rounded=0;exitX=0.5;exitY=0;exitDx=0;exitDy=0;entryX=0.5;entryY=1;entryDx=0;entryDy=0;" parent="1" source="bxEZ8ckqoEu1JuAKQ9-u-20" target="c3sbEHsN1Rzc0lD4RSrM-78" edge="1">
          <mxGeometry width="50" height="50" relative="1" as="geometry">
            <mxPoint x="480" y="250" as="sourcePoint" />
            <mxPoint x="460" y="430" as="targetPoint" />
          </mxGeometry>
        </mxCell>
        <mxCell id="bxEZ8ckqoEu1JuAKQ9-u-23" value="&lt;font style=&quot;font-size: 18px;&quot;&gt;1&lt;/font&gt;" style="text;html=1;align=center;verticalAlign=middle;resizable=0;points=[];autosize=1;strokeColor=none;fillColor=none;" parent="1" vertex="1">
          <mxGeometry x="460" y="240" width="30" height="40" as="geometry" />
        </mxCell>
        <mxCell id="bxEZ8ckqoEu1JuAKQ9-u-25" value="&lt;font style=&quot;font-size: 18px;&quot;&gt;n&lt;/font&gt;" style="text;html=1;align=center;verticalAlign=middle;resizable=0;points=[];autosize=1;strokeColor=none;fillColor=none;" parent="1" vertex="1">
          <mxGeometry x="460" y="340" width="30" height="40" as="geometry" />
        </mxCell>
        <mxCell id="bxEZ8ckqoEu1JuAKQ9-u-26" value="&lt;font style=&quot;font-size: 18px;&quot;&gt;1&lt;/font&gt;" style="text;html=1;align=center;verticalAlign=middle;resizable=0;points=[];autosize=1;strokeColor=none;fillColor=none;" parent="1" vertex="1">
          <mxGeometry x="460" y="490" width="30" height="40" as="geometry" />
        </mxCell>
        <mxCell id="bxEZ8ckqoEu1JuAKQ9-u-27" value="&lt;font style=&quot;font-size: 18px;&quot;&gt;n&lt;/font&gt;" style="text;html=1;align=center;verticalAlign=middle;resizable=0;points=[];autosize=1;strokeColor=none;fillColor=none;" parent="1" vertex="1">
          <mxGeometry x="460" y="590" width="30" height="40" as="geometry" />
        </mxCell>
        <mxCell id="bxEZ8ckqoEu1JuAKQ9-u-28" value="Név" style="ellipse;whiteSpace=wrap;html=1;" parent="1" vertex="1">
          <mxGeometry x="200" y="360" width="80" height="40" as="geometry" />
        </mxCell>
        <mxCell id="bxEZ8ckqoEu1JuAKQ9-u-29" value="" style="endArrow=none;html=1;rounded=0;entryX=1;entryY=0;entryDx=0;entryDy=0;exitX=0;exitY=1;exitDx=0;exitDy=0;" parent="1" source="bxEZ8ckqoEu1JuAKQ9-u-28" target="bxEZ8ckqoEu1JuAKQ9-u-30" edge="1">
          <mxGeometry width="50" height="50" relative="1" as="geometry">
            <mxPoint x="450" y="400" as="sourcePoint" />
            <mxPoint x="370" y="395.86" as="targetPoint" />
          </mxGeometry>
        </mxCell>
        <mxCell id="bxEZ8ckqoEu1JuAKQ9-u-30" value="Beállítások" style="rounded=0;whiteSpace=wrap;html=1;fillColor=#fff2cc;strokeColor=#d6b656;" parent="1" vertex="1">
          <mxGeometry x="80" y="430" width="80" height="40" as="geometry" />
        </mxCell>
        <mxCell id="bxEZ8ckqoEu1JuAKQ9-u-31" value="Formáz" style="rhombus;whiteSpace=wrap;html=1;fillColor=#d5e8d4;strokeColor=#82b366;" parent="1" vertex="1">
          <mxGeometry x="260" y="420" width="60" height="60" as="geometry" />
        </mxCell>
        <mxCell id="bxEZ8ckqoEu1JuAKQ9-u-32" value="" style="endArrow=none;html=1;rounded=0;exitX=1;exitY=0.5;exitDx=0;exitDy=0;entryX=0;entryY=0.5;entryDx=0;entryDy=0;" parent="1" source="bxEZ8ckqoEu1JuAKQ9-u-30" target="bxEZ8ckqoEu1JuAKQ9-u-31" edge="1">
          <mxGeometry width="50" height="50" relative="1" as="geometry">
            <mxPoint x="340" y="260" as="sourcePoint" />
            <mxPoint x="300" y="450" as="targetPoint" />
          </mxGeometry>
        </mxCell>
        <mxCell id="bxEZ8ckqoEu1JuAKQ9-u-33" value="" style="endArrow=none;html=1;rounded=0;exitX=0;exitY=0.5;exitDx=0;exitDy=0;entryX=1;entryY=0.5;entryDx=0;entryDy=0;" parent="1" source="bxEZ8ckqoEu1JuAKQ9-u-11" target="bxEZ8ckqoEu1JuAKQ9-u-31" edge="1">
          <mxGeometry width="50" height="50" relative="1" as="geometry">
            <mxPoint x="270" y="460" as="sourcePoint" />
            <mxPoint x="320" y="460" as="targetPoint" />
          </mxGeometry>
        </mxCell>
        <mxCell id="bxEZ8ckqoEu1JuAKQ9-u-34" value="&lt;font style=&quot;font-size: 18px;&quot;&gt;1&lt;/font&gt;" style="text;html=1;align=center;verticalAlign=middle;resizable=0;points=[];autosize=1;strokeColor=none;fillColor=none;" parent="1" vertex="1">
          <mxGeometry x="230" y="410" width="30" height="40" as="geometry" />
        </mxCell>
        <mxCell id="bxEZ8ckqoEu1JuAKQ9-u-35" value="&lt;font style=&quot;font-size: 18px;&quot;&gt;1&lt;/font&gt;" style="text;html=1;align=center;verticalAlign=middle;resizable=0;points=[];autosize=1;strokeColor=none;fillColor=none;" parent="1" vertex="1">
          <mxGeometry x="320" y="410" width="30" height="40" as="geometry" />
        </mxCell>
        <mxCell id="bxEZ8ckqoEu1JuAKQ9-u-36" value="Vezetéknév" style="ellipse;whiteSpace=wrap;html=1;" parent="1" vertex="1">
          <mxGeometry x="560" y="805" width="80" height="40" as="geometry" />
        </mxCell>
        <mxCell id="bxEZ8ckqoEu1JuAKQ9-u-37" value="Születési idő" style="ellipse;whiteSpace=wrap;html=1;" parent="1" vertex="1">
          <mxGeometry x="280" y="805" width="80" height="40" as="geometry" />
        </mxCell>
        <mxCell id="bxEZ8ckqoEu1JuAKQ9-u-38" value="Születési hely" style="ellipse;whiteSpace=wrap;html=1;" parent="1" vertex="1">
          <mxGeometry x="280" y="745" width="80" height="40" as="geometry" />
        </mxCell>
        <mxCell id="bxEZ8ckqoEu1JuAKQ9-u-39" value="&lt;u&gt;ID&lt;/u&gt;" style="ellipse;whiteSpace=wrap;html=1;" parent="1" vertex="1">
          <mxGeometry x="520" y="695" width="80" height="40" as="geometry" />
        </mxCell>
        <mxCell id="c3sbEHsN1Rzc0lD4RSrM-3" value="" style="endArrow=none;html=1;rounded=0;entryX=0.5;entryY=0;entryDx=0;entryDy=0;exitX=0.5;exitY=1;exitDx=0;exitDy=0;" parent="1" source="bxEZ8ckqoEu1JuAKQ9-u-19" target="oRA0kIdg80wgNyJa5rN7-21" edge="1">
          <mxGeometry width="50" height="50" relative="1" as="geometry">
            <mxPoint x="460" y="885" as="sourcePoint" />
            <mxPoint x="460" y="935" as="targetPoint" />
          </mxGeometry>
        </mxCell>
        <mxCell id="c3sbEHsN1Rzc0lD4RSrM-7" value="" style="endArrow=none;html=1;rounded=0;entryX=0.75;entryY=1;entryDx=0;entryDy=0;exitX=0;exitY=0;exitDx=0;exitDy=0;" parent="1" source="oRA0kIdg80wgNyJa5rN7-20" target="bxEZ8ckqoEu1JuAKQ9-u-19" edge="1">
          <mxGeometry width="50" height="50" relative="1" as="geometry">
            <mxPoint x="550" y="965" as="sourcePoint" />
            <mxPoint x="490" y="845" as="targetPoint" />
          </mxGeometry>
        </mxCell>
        <mxCell id="c3sbEHsN1Rzc0lD4RSrM-8" value="" style="endArrow=none;html=1;rounded=0;exitX=1;exitY=0;exitDx=0;exitDy=0;entryX=0.25;entryY=1;entryDx=0;entryDy=0;" parent="1" source="oRA0kIdg80wgNyJa5rN7-19" target="bxEZ8ckqoEu1JuAKQ9-u-19" edge="1">
          <mxGeometry width="50" height="50" relative="1" as="geometry">
            <mxPoint x="370" y="965" as="sourcePoint" />
            <mxPoint x="430" y="845" as="targetPoint" />
          </mxGeometry>
        </mxCell>
        <mxCell id="c3sbEHsN1Rzc0lD4RSrM-14" value="" style="endArrow=none;html=1;rounded=0;exitX=1;exitY=0.5;exitDx=0;exitDy=0;entryX=0;entryY=0.5;entryDx=0;entryDy=0;" parent="1" source="bxEZ8ckqoEu1JuAKQ9-u-19" target="c3sbEHsN1Rzc0lD4RSrM-51" edge="1">
          <mxGeometry width="50" height="50" relative="1" as="geometry">
            <mxPoint x="600" y="795" as="sourcePoint" />
            <mxPoint x="760" y="795" as="targetPoint" />
          </mxGeometry>
        </mxCell>
        <mxCell id="c3sbEHsN1Rzc0lD4RSrM-18" value="" style="endArrow=none;html=1;rounded=0;entryX=0;entryY=1;entryDx=0;entryDy=0;exitX=1;exitY=0;exitDx=0;exitDy=0;" parent="1" source="bxEZ8ckqoEu1JuAKQ9-u-19" target="bxEZ8ckqoEu1JuAKQ9-u-39" edge="1">
          <mxGeometry width="50" height="50" relative="1" as="geometry">
            <mxPoint x="440" y="705" as="sourcePoint" />
            <mxPoint x="390" y="725" as="targetPoint" />
            <Array as="points" />
          </mxGeometry>
        </mxCell>
        <mxCell id="c3sbEHsN1Rzc0lD4RSrM-22" value="" style="endArrow=none;html=1;rounded=0;entryX=1;entryY=0.5;entryDx=0;entryDy=0;exitX=0;exitY=0.5;exitDx=0;exitDy=0;" parent="1" source="bxEZ8ckqoEu1JuAKQ9-u-19" target="bxEZ8ckqoEu1JuAKQ9-u-37" edge="1">
          <mxGeometry width="50" height="50" relative="1" as="geometry">
            <mxPoint x="500" y="705" as="sourcePoint" />
            <mxPoint x="540" y="725" as="targetPoint" />
            <Array as="points" />
          </mxGeometry>
        </mxCell>
        <mxCell id="c3sbEHsN1Rzc0lD4RSrM-23" value="" style="endArrow=none;html=1;rounded=0;entryX=1;entryY=0.5;entryDx=0;entryDy=0;exitX=0;exitY=0.5;exitDx=0;exitDy=0;" parent="1" source="bxEZ8ckqoEu1JuAKQ9-u-19" target="bxEZ8ckqoEu1JuAKQ9-u-38" edge="1">
          <mxGeometry width="50" height="50" relative="1" as="geometry">
            <mxPoint x="510" y="715" as="sourcePoint" />
            <mxPoint x="550" y="735" as="targetPoint" />
            <Array as="points" />
          </mxGeometry>
        </mxCell>
        <mxCell id="c3sbEHsN1Rzc0lD4RSrM-31" value="Keresztnév" style="ellipse;whiteSpace=wrap;html=1;" parent="1" vertex="1">
          <mxGeometry x="520" y="855" width="80" height="40" as="geometry" />
        </mxCell>
        <mxCell id="c3sbEHsN1Rzc0lD4RSrM-32" value="" style="endArrow=none;html=1;rounded=0;entryX=0;entryY=0;entryDx=0;entryDy=0;exitX=1;exitY=1;exitDx=0;exitDy=0;" parent="1" source="bxEZ8ckqoEu1JuAKQ9-u-19" target="c3sbEHsN1Rzc0lD4RSrM-31" edge="1">
          <mxGeometry width="50" height="50" relative="1" as="geometry">
            <mxPoint x="510" y="805" as="sourcePoint" />
            <mxPoint x="550" y="805" as="targetPoint" />
          </mxGeometry>
        </mxCell>
        <mxCell id="c3sbEHsN1Rzc0lD4RSrM-35" value="Halálozási idő" style="ellipse;whiteSpace=wrap;html=1;" parent="1" vertex="1">
          <mxGeometry x="320" y="695" width="80" height="40" as="geometry" />
        </mxCell>
        <mxCell id="c3sbEHsN1Rzc0lD4RSrM-37" value="" style="endArrow=none;html=1;rounded=0;entryX=1;entryY=1;entryDx=0;entryDy=0;exitX=0;exitY=0;exitDx=0;exitDy=0;" parent="1" source="bxEZ8ckqoEu1JuAKQ9-u-19" target="c3sbEHsN1Rzc0lD4RSrM-35" edge="1">
          <mxGeometry width="50" height="50" relative="1" as="geometry">
            <mxPoint x="430" y="785" as="sourcePoint" />
            <mxPoint x="390" y="725" as="targetPoint" />
            <Array as="points" />
          </mxGeometry>
        </mxCell>
        <mxCell id="c3sbEHsN1Rzc0lD4RSrM-39" value="Férfi jelölés, szín" style="ellipse;whiteSpace=wrap;html=1;" parent="1" vertex="1">
          <mxGeometry x="80" y="350" width="80" height="40" as="geometry" />
        </mxCell>
        <mxCell id="c3sbEHsN1Rzc0lD4RSrM-40" value="" style="endArrow=none;html=1;rounded=0;entryX=0.5;entryY=1;entryDx=0;entryDy=0;exitX=0.5;exitY=0;exitDx=0;exitDy=0;" parent="1" source="bxEZ8ckqoEu1JuAKQ9-u-30" target="c3sbEHsN1Rzc0lD4RSrM-39" edge="1">
          <mxGeometry width="50" height="50" relative="1" as="geometry">
            <mxPoint x="330" y="640" as="sourcePoint" />
            <mxPoint x="170" y="580" as="targetPoint" />
            <Array as="points" />
          </mxGeometry>
        </mxCell>
        <mxCell id="c3sbEHsN1Rzc0lD4RSrM-42" value="Nő jelölés, szín" style="ellipse;whiteSpace=wrap;html=1;" parent="1" vertex="1">
          <mxGeometry x="-40" y="350" width="80" height="40" as="geometry" />
        </mxCell>
        <mxCell id="c3sbEHsN1Rzc0lD4RSrM-43" value="" style="endArrow=none;html=1;rounded=0;entryX=1;entryY=1;entryDx=0;entryDy=0;exitX=0;exitY=0;exitDx=0;exitDy=0;" parent="1" source="bxEZ8ckqoEu1JuAKQ9-u-30" target="c3sbEHsN1Rzc0lD4RSrM-42" edge="1">
          <mxGeometry width="50" height="50" relative="1" as="geometry">
            <mxPoint x="130" y="440" as="sourcePoint" />
            <mxPoint x="130" y="400" as="targetPoint" />
            <Array as="points" />
          </mxGeometry>
        </mxCell>
        <mxCell id="c3sbEHsN1Rzc0lD4RSrM-44" value="Alapértelmezett személy jelölés, szín" style="ellipse;whiteSpace=wrap;html=1;" parent="1" vertex="1">
          <mxGeometry x="-70" y="425" width="110" height="50" as="geometry" />
        </mxCell>
        <mxCell id="c3sbEHsN1Rzc0lD4RSrM-45" value="" style="endArrow=none;html=1;rounded=0;entryX=0;entryY=0.5;entryDx=0;entryDy=0;exitX=1;exitY=0.5;exitDx=0;exitDy=0;" parent="1" source="c3sbEHsN1Rzc0lD4RSrM-44" target="bxEZ8ckqoEu1JuAKQ9-u-30" edge="1">
          <mxGeometry width="50" height="50" relative="1" as="geometry">
            <mxPoint x="130" y="440" as="sourcePoint" />
            <mxPoint x="130" y="400" as="targetPoint" />
            <Array as="points" />
          </mxGeometry>
        </mxCell>
        <mxCell id="c3sbEHsN1Rzc0lD4RSrM-47" value="Profillép" style="ellipse;whiteSpace=wrap;html=1;" parent="1" vertex="1">
          <mxGeometry x="560" y="745" width="80" height="40" as="geometry" />
        </mxCell>
        <mxCell id="c3sbEHsN1Rzc0lD4RSrM-48" value="" style="endArrow=none;html=1;rounded=0;entryX=0;entryY=0.5;entryDx=0;entryDy=0;exitX=1;exitY=0.5;exitDx=0;exitDy=0;" parent="1" source="bxEZ8ckqoEu1JuAKQ9-u-19" target="c3sbEHsN1Rzc0lD4RSrM-47" edge="1">
          <mxGeometry width="50" height="50" relative="1" as="geometry">
            <mxPoint x="510" y="785" as="sourcePoint" />
            <mxPoint x="561.7157287525379" y="739.1421356237311" as="targetPoint" />
            <Array as="points" />
          </mxGeometry>
        </mxCell>
        <mxCell id="c3sbEHsN1Rzc0lD4RSrM-50" value="" style="endArrow=none;html=1;rounded=0;exitX=1;exitY=0.5;exitDx=0;exitDy=0;entryX=0;entryY=0.5;entryDx=0;entryDy=0;" parent="1" source="bxEZ8ckqoEu1JuAKQ9-u-19" target="bxEZ8ckqoEu1JuAKQ9-u-36" edge="1">
          <mxGeometry width="50" height="50" relative="1" as="geometry">
            <mxPoint x="510" y="785" as="sourcePoint" />
            <mxPoint x="650" y="835" as="targetPoint" />
            <Array as="points" />
          </mxGeometry>
        </mxCell>
        <mxCell id="c3sbEHsN1Rzc0lD4RSrM-51" value="Róla készült" style="rhombus;whiteSpace=wrap;html=1;fillColor=#d5e8d4;strokeColor=#82b366;" parent="1" vertex="1">
          <mxGeometry x="690" y="765" width="60" height="60" as="geometry" />
        </mxCell>
        <mxCell id="c3sbEHsN1Rzc0lD4RSrM-52" value="Képek" style="rounded=0;whiteSpace=wrap;html=1;fillColor=#fff2cc;strokeColor=#d6b656;" parent="1" vertex="1">
          <mxGeometry x="800" y="775" width="80" height="40" as="geometry" />
        </mxCell>
        <mxCell id="c3sbEHsN1Rzc0lD4RSrM-53" value="" style="endArrow=none;html=1;rounded=0;exitX=0;exitY=0.5;exitDx=0;exitDy=0;entryX=1;entryY=0.5;entryDx=0;entryDy=0;" parent="1" source="c3sbEHsN1Rzc0lD4RSrM-52" target="c3sbEHsN1Rzc0lD4RSrM-51" edge="1">
          <mxGeometry width="50" height="50" relative="1" as="geometry">
            <mxPoint x="630" y="805" as="sourcePoint" />
            <mxPoint x="700" y="805" as="targetPoint" />
          </mxGeometry>
        </mxCell>
        <mxCell id="c3sbEHsN1Rzc0lD4RSrM-54" value="kép név" style="ellipse;whiteSpace=wrap;html=1;" parent="1" vertex="1">
          <mxGeometry x="800" y="855" width="80" height="40" as="geometry" />
        </mxCell>
        <mxCell id="c3sbEHsN1Rzc0lD4RSrM-56" value="" style="endArrow=none;html=1;rounded=0;exitX=0.5;exitY=0;exitDx=0;exitDy=0;entryX=0.5;entryY=1;entryDx=0;entryDy=0;" parent="1" source="c3sbEHsN1Rzc0lD4RSrM-54" target="c3sbEHsN1Rzc0lD4RSrM-52" edge="1">
          <mxGeometry width="50" height="50" relative="1" as="geometry">
            <mxPoint x="810" y="805" as="sourcePoint" />
            <mxPoint x="740" y="805" as="targetPoint" />
          </mxGeometry>
        </mxCell>
        <mxCell id="c3sbEHsN1Rzc0lD4RSrM-62" value="&lt;font style=&quot;font-size: 18px;&quot;&gt;1&lt;/font&gt;" style="text;html=1;align=center;verticalAlign=middle;resizable=0;points=[];autosize=1;strokeColor=none;fillColor=none;" parent="1" vertex="1">
          <mxGeometry x="660" y="755" width="30" height="40" as="geometry" />
        </mxCell>
        <mxCell id="c3sbEHsN1Rzc0lD4RSrM-63" value="&lt;font style=&quot;font-size: 18px;&quot;&gt;n&lt;/font&gt;" style="text;html=1;align=center;verticalAlign=middle;resizable=0;points=[];autosize=1;strokeColor=none;fillColor=none;" parent="1" vertex="1">
          <mxGeometry x="750" y="755" width="30" height="40" as="geometry" />
        </mxCell>
        <mxCell id="c3sbEHsN1Rzc0lD4RSrM-64" value="Publikus?" style="ellipse;whiteSpace=wrap;html=1;" parent="1" vertex="1">
          <mxGeometry x="-40" y="510" width="80" height="40" as="geometry" />
        </mxCell>
        <mxCell id="c3sbEHsN1Rzc0lD4RSrM-66" value="Jogosultság" style="ellipse;whiteSpace=wrap;html=1;" parent="1" vertex="1">
          <mxGeometry x="300" y="230" width="80" height="40" as="geometry" />
        </mxCell>
        <mxCell id="c3sbEHsN1Rzc0lD4RSrM-67" value="" style="endArrow=none;html=1;rounded=0;entryX=0;entryY=1;entryDx=0;entryDy=0;exitX=1;exitY=0;exitDx=0;exitDy=0;" parent="1" source="c3sbEHsN1Rzc0lD4RSrM-66" target="bxEZ8ckqoEu1JuAKQ9-u-1" edge="1">
          <mxGeometry width="50" height="50" relative="1" as="geometry">
            <mxPoint x="418.28427124746213" y="114.14213562373106" as="sourcePoint" />
            <mxPoint x="470" y="160" as="targetPoint" />
          </mxGeometry>
        </mxCell>
        <mxCell id="c3sbEHsN1Rzc0lD4RSrM-68" value="Életút" style="rounded=0;whiteSpace=wrap;html=1;fillColor=#fff2cc;strokeColor=#d6b656;" parent="1" vertex="1">
          <mxGeometry y="775" width="80" height="40" as="geometry" />
        </mxCell>
        <mxCell id="c3sbEHsN1Rzc0lD4RSrM-69" value="" style="endArrow=none;html=1;rounded=0;entryX=1;entryY=0;entryDx=0;entryDy=0;exitX=0;exitY=1;exitDx=0;exitDy=0;" parent="1" source="bxEZ8ckqoEu1JuAKQ9-u-30" target="c3sbEHsN1Rzc0lD4RSrM-64" edge="1">
          <mxGeometry width="50" height="50" relative="1" as="geometry">
            <mxPoint x="80" y="500" as="sourcePoint" />
            <mxPoint x="28.284271247461902" y="545.8578643762687" as="targetPoint" />
          </mxGeometry>
        </mxCell>
        <mxCell id="c3sbEHsN1Rzc0lD4RSrM-70" value="" style="endArrow=none;html=1;rounded=0;entryX=0;entryY=0.5;entryDx=0;entryDy=0;exitX=1;exitY=0.5;exitDx=0;exitDy=0;" parent="1" source="c3sbEHsN1Rzc0lD4RSrM-68" target="c3sbEHsN1Rzc0lD4RSrM-75" edge="1">
          <mxGeometry width="50" height="50" relative="1" as="geometry">
            <mxPoint x="50" y="605" as="sourcePoint" />
            <mxPoint x="90" y="605" as="targetPoint" />
            <Array as="points" />
          </mxGeometry>
        </mxCell>
        <mxCell id="c3sbEHsN1Rzc0lD4RSrM-71" value="Szöveg" style="ellipse;whiteSpace=wrap;html=1;" parent="1" vertex="1">
          <mxGeometry y="695" width="80" height="40" as="geometry" />
        </mxCell>
        <mxCell id="c3sbEHsN1Rzc0lD4RSrM-72" value="" style="endArrow=none;html=1;rounded=0;entryX=0.5;entryY=0;entryDx=0;entryDy=0;exitX=0.5;exitY=1;exitDx=0;exitDy=0;" parent="1" source="c3sbEHsN1Rzc0lD4RSrM-71" target="c3sbEHsN1Rzc0lD4RSrM-68" edge="1">
          <mxGeometry width="50" height="50" relative="1" as="geometry">
            <mxPoint x="358.28427124746213" y="470.85786437626894" as="sourcePoint" />
            <mxPoint x="410" y="425" as="targetPoint" />
          </mxGeometry>
        </mxCell>
        <mxCell id="c3sbEHsN1Rzc0lD4RSrM-73" value="Cím" style="ellipse;whiteSpace=wrap;html=1;" parent="1" vertex="1">
          <mxGeometry y="855" width="80" height="40" as="geometry" />
        </mxCell>
        <mxCell id="c3sbEHsN1Rzc0lD4RSrM-74" value="" style="endArrow=none;html=1;rounded=0;entryX=0.5;entryY=0;entryDx=0;entryDy=0;exitX=0.5;exitY=1;exitDx=0;exitDy=0;" parent="1" source="c3sbEHsN1Rzc0lD4RSrM-68" target="c3sbEHsN1Rzc0lD4RSrM-73" edge="1">
          <mxGeometry width="50" height="50" relative="1" as="geometry">
            <mxPoint x="90" y="745" as="sourcePoint" />
            <mxPoint x="90" y="785" as="targetPoint" />
          </mxGeometry>
        </mxCell>
        <mxCell id="c3sbEHsN1Rzc0lD4RSrM-75" value="Történt" style="rhombus;whiteSpace=wrap;html=1;fillColor=#d5e8d4;strokeColor=#82b366;" parent="1" vertex="1">
          <mxGeometry x="140" y="765" width="60" height="60" as="geometry" />
        </mxCell>
        <mxCell id="c3sbEHsN1Rzc0lD4RSrM-76" value="" style="endArrow=none;html=1;rounded=0;entryX=1;entryY=0.5;entryDx=0;entryDy=0;exitX=0;exitY=0.5;exitDx=0;exitDy=0;" parent="1" source="bxEZ8ckqoEu1JuAKQ9-u-19" target="c3sbEHsN1Rzc0lD4RSrM-75" edge="1">
          <mxGeometry width="50" height="50" relative="1" as="geometry">
            <mxPoint x="110" y="805" as="sourcePoint" />
            <mxPoint x="170" y="805" as="targetPoint" />
            <Array as="points" />
          </mxGeometry>
        </mxCell>
        <mxCell id="c3sbEHsN1Rzc0lD4RSrM-77" value="Felhsználók" style="rounded=0;whiteSpace=wrap;html=1;fillColor=#fff2cc;strokeColor=#d6b656;" parent="1" vertex="1">
          <mxGeometry x="420" y="150" width="80" height="40" as="geometry" />
        </mxCell>
        <mxCell id="c3sbEHsN1Rzc0lD4RSrM-78" value="Családfák" style="rounded=0;whiteSpace=wrap;html=1;fillColor=#fff2cc;strokeColor=#d6b656;" parent="1" vertex="1">
          <mxGeometry x="420" y="430" width="80" height="40" as="geometry" />
        </mxCell>
        <mxCell id="c3sbEHsN1Rzc0lD4RSrM-79" value="&lt;font style=&quot;font-size: 18px;&quot;&gt;1&lt;/font&gt;" style="text;html=1;align=center;verticalAlign=middle;resizable=0;points=[];autosize=1;strokeColor=none;fillColor=none;" parent="1" vertex="1">
          <mxGeometry x="110" y="755" width="30" height="40" as="geometry" />
        </mxCell>
        <mxCell id="c3sbEHsN1Rzc0lD4RSrM-80" value="&lt;font style=&quot;font-size: 18px;&quot;&gt;1&lt;/font&gt;" style="text;html=1;align=center;verticalAlign=middle;resizable=0;points=[];autosize=1;strokeColor=none;fillColor=none;" parent="1" vertex="1">
          <mxGeometry x="200" y="755" width="30" height="40" as="geometry" />
        </mxCell>
        <mxCell id="iLerrm7Sx4yUE0ZV8Jv1-1" value="Háttérszín" style="ellipse;whiteSpace=wrap;html=1;" parent="1" vertex="1">
          <mxGeometry x="80" y="510" width="80" height="40" as="geometry" />
        </mxCell>
        <mxCell id="iLerrm7Sx4yUE0ZV8Jv1-2" value="" style="endArrow=none;html=1;rounded=0;entryX=0.5;entryY=0;entryDx=0;entryDy=0;exitX=0.5;exitY=1;exitDx=0;exitDy=0;" parent="1" source="bxEZ8ckqoEu1JuAKQ9-u-30" target="iLerrm7Sx4yUE0ZV8Jv1-1" edge="1">
          <mxGeometry width="50" height="50" relative="1" as="geometry">
            <mxPoint x="150" y="500" as="sourcePoint" />
            <mxPoint x="130" y="400" as="targetPoint" />
            <Array as="points" />
          </mxGeometry>
        </mxCell>
        <mxCell id="iLerrm7Sx4yUE0ZV8Jv1-4" value="&lt;u&gt;ID&lt;/u&gt;" style="ellipse;whiteSpace=wrap;html=1;" parent="1" vertex="1">
          <mxGeometry x="200" y="500" width="80" height="40" as="geometry" />
        </mxCell>
        <mxCell id="iLerrm7Sx4yUE0ZV8Jv1-5" value="" style="endArrow=none;html=1;rounded=0;entryX=0;entryY=0;entryDx=0;entryDy=0;exitX=1;exitY=1;exitDx=0;exitDy=0;" parent="1" source="bxEZ8ckqoEu1JuAKQ9-u-30" target="iLerrm7Sx4yUE0ZV8Jv1-4" edge="1">
          <mxGeometry width="50" height="50" relative="1" as="geometry">
            <mxPoint x="130" y="440" as="sourcePoint" />
            <mxPoint x="130" y="400" as="targetPoint" />
            <Array as="points" />
          </mxGeometry>
        </mxCell>
        <mxCell id="iLerrm7Sx4yUE0ZV8Jv1-11" value="&lt;u&gt;ID&lt;/u&gt;" style="ellipse;whiteSpace=wrap;html=1;" parent="1" vertex="1">
          <mxGeometry x="-140" y="775" width="80" height="40" as="geometry" />
        </mxCell>
        <mxCell id="iLerrm7Sx4yUE0ZV8Jv1-12" value="" style="endArrow=none;html=1;rounded=0;entryX=0;entryY=0.5;entryDx=0;entryDy=0;exitX=1;exitY=0.5;exitDx=0;exitDy=0;" parent="1" source="iLerrm7Sx4yUE0ZV8Jv1-11" target="c3sbEHsN1Rzc0lD4RSrM-68" edge="1">
          <mxGeometry width="50" height="50" relative="1" as="geometry">
            <mxPoint x="250" y="595" as="sourcePoint" />
            <mxPoint x="301.7157287525383" y="630.8578643762689" as="targetPoint" />
            <Array as="points" />
          </mxGeometry>
        </mxCell>
        <mxCell id="oRA0kIdg80wgNyJa5rN7-1" value="Név" style="ellipse;whiteSpace=wrap;html=1;" vertex="1" parent="1">
          <mxGeometry x="540" y="230" width="80" height="40" as="geometry" />
        </mxCell>
        <mxCell id="oRA0kIdg80wgNyJa5rN7-3" value="" style="endArrow=none;html=1;rounded=0;exitX=0;exitY=0;exitDx=0;exitDy=0;entryX=1;entryY=1;entryDx=0;entryDy=0;" edge="1" parent="1" source="oRA0kIdg80wgNyJa5rN7-1" target="c3sbEHsN1Rzc0lD4RSrM-77">
          <mxGeometry width="50" height="50" relative="1" as="geometry">
            <mxPoint x="522" y="114" as="sourcePoint" />
            <mxPoint x="500" y="236" as="targetPoint" />
          </mxGeometry>
        </mxCell>
        <mxCell id="oRA0kIdg80wgNyJa5rN7-4" value="Tiltás üzenet" style="ellipse;whiteSpace=wrap;html=1;" vertex="1" parent="1">
          <mxGeometry x="420" y="10" width="80" height="40" as="geometry" />
        </mxCell>
        <mxCell id="oRA0kIdg80wgNyJa5rN7-5" value="" style="endArrow=none;html=1;rounded=0;entryX=0.5;entryY=0;entryDx=0;entryDy=0;exitX=0.5;exitY=1;exitDx=0;exitDy=0;" edge="1" parent="1" source="oRA0kIdg80wgNyJa5rN7-4" target="c3sbEHsN1Rzc0lD4RSrM-77">
          <mxGeometry width="50" height="50" relative="1" as="geometry">
            <mxPoint x="522" y="114" as="sourcePoint" />
            <mxPoint x="470" y="160" as="targetPoint" />
          </mxGeometry>
        </mxCell>
        <mxCell id="oRA0kIdg80wgNyJa5rN7-6" value="Név" style="ellipse;whiteSpace=wrap;html=1;" vertex="1" parent="1">
          <mxGeometry x="560" y="470" width="80" height="40" as="geometry" />
        </mxCell>
        <mxCell id="oRA0kIdg80wgNyJa5rN7-8" value="" style="endArrow=none;html=1;rounded=0;entryX=0;entryY=0;entryDx=0;entryDy=0;exitX=1;exitY=0.5;exitDx=0;exitDy=0;" edge="1" parent="1" source="c3sbEHsN1Rzc0lD4RSrM-78" target="oRA0kIdg80wgNyJa5rN7-6">
          <mxGeometry width="50" height="50" relative="1" as="geometry">
            <mxPoint x="510" y="460" as="sourcePoint" />
            <mxPoint x="582" y="434" as="targetPoint" />
          </mxGeometry>
        </mxCell>
        <mxCell id="oRA0kIdg80wgNyJa5rN7-9" value="&lt;u&gt;ID&lt;/u&gt;" style="ellipse;whiteSpace=wrap;html=1;" vertex="1" parent="1">
          <mxGeometry x="800" y="695" width="80" height="40" as="geometry" />
        </mxCell>
        <mxCell id="oRA0kIdg80wgNyJa5rN7-10" value="" style="endArrow=none;html=1;rounded=0;exitX=0.5;exitY=1;exitDx=0;exitDy=0;entryX=0.5;entryY=0;entryDx=0;entryDy=0;" edge="1" parent="1" source="oRA0kIdg80wgNyJa5rN7-9" target="c3sbEHsN1Rzc0lD4RSrM-52">
          <mxGeometry width="50" height="50" relative="1" as="geometry">
            <mxPoint x="930" y="805" as="sourcePoint" />
            <mxPoint x="890" y="805" as="targetPoint" />
          </mxGeometry>
        </mxCell>
        <mxCell id="oRA0kIdg80wgNyJa5rN7-11" value="Belső fa ID" style="ellipse;whiteSpace=wrap;html=1;" vertex="1" parent="1">
          <mxGeometry x="320" y="855" width="80" height="40" as="geometry" />
        </mxCell>
        <mxCell id="oRA0kIdg80wgNyJa5rN7-13" value="" style="endArrow=none;html=1;rounded=0;entryX=1;entryY=0;entryDx=0;entryDy=0;exitX=0;exitY=1;exitDx=0;exitDy=0;" edge="1" parent="1" source="bxEZ8ckqoEu1JuAKQ9-u-19" target="oRA0kIdg80wgNyJa5rN7-11">
          <mxGeometry width="50" height="50" relative="1" as="geometry">
            <mxPoint x="430" y="805" as="sourcePoint" />
            <mxPoint x="370" y="835" as="targetPoint" />
            <Array as="points" />
          </mxGeometry>
        </mxCell>
        <mxCell id="oRA0kIdg80wgNyJa5rN7-14" value="Telefonszám" style="ellipse;whiteSpace=wrap;html=1;" vertex="1" parent="1">
          <mxGeometry x="360" y="640" width="80" height="40" as="geometry" />
        </mxCell>
        <mxCell id="oRA0kIdg80wgNyJa5rN7-16" value="" style="endArrow=none;html=1;rounded=0;entryX=1;entryY=1;entryDx=0;entryDy=0;exitX=0.25;exitY=0;exitDx=0;exitDy=0;" edge="1" parent="1" source="bxEZ8ckqoEu1JuAKQ9-u-19" target="oRA0kIdg80wgNyJa5rN7-14">
          <mxGeometry width="50" height="50" relative="1" as="geometry">
            <mxPoint x="430" y="785" as="sourcePoint" />
            <mxPoint x="398" y="739" as="targetPoint" />
            <Array as="points" />
          </mxGeometry>
        </mxCell>
        <mxCell id="oRA0kIdg80wgNyJa5rN7-17" value="Nem" style="ellipse;whiteSpace=wrap;html=1;" vertex="1" parent="1">
          <mxGeometry x="480" y="640" width="80" height="40" as="geometry" />
        </mxCell>
        <mxCell id="oRA0kIdg80wgNyJa5rN7-18" value="" style="endArrow=none;html=1;rounded=0;entryX=0;entryY=1;entryDx=0;entryDy=0;exitX=0.75;exitY=0;exitDx=0;exitDy=0;" edge="1" parent="1" source="bxEZ8ckqoEu1JuAKQ9-u-19" target="oRA0kIdg80wgNyJa5rN7-17">
          <mxGeometry width="50" height="50" relative="1" as="geometry">
            <mxPoint x="450" y="785" as="sourcePoint" />
            <mxPoint x="438" y="684" as="targetPoint" />
            <Array as="points" />
          </mxGeometry>
        </mxCell>
        <mxCell id="oRA0kIdg80wgNyJa5rN7-19" value="Anya ID" style="ellipse;whiteSpace=wrap;html=1;" vertex="1" parent="1">
          <mxGeometry x="320" y="920" width="80" height="40" as="geometry" />
        </mxCell>
        <mxCell id="oRA0kIdg80wgNyJa5rN7-20" value="Apa ID" style="ellipse;whiteSpace=wrap;html=1;" vertex="1" parent="1">
          <mxGeometry x="520" y="920" width="80" height="40" as="geometry" />
        </mxCell>
        <mxCell id="oRA0kIdg80wgNyJa5rN7-21" value="Partnerek" style="ellipse;whiteSpace=wrap;html=1;" vertex="1" parent="1">
          <mxGeometry x="420" y="920" width="80" height="40" as="geometry" />
        </mxCell>
      </root>
    </mxGraphModel>
  </diagram>
</mxfile>
